<svg width="45" height="43" viewBox="0 0 45 43" fill="none" xmlns="http://www.w3.org/2000/svg">
<g clip-path="url(#clip0_1372_1356)">
<path d="M6.82814 36.866H29.6964C33.1953 36.866 34.9364 35.125 34.9364 31.6762V11.2354C34.9364 7.78679 33.1953 6.04572 29.6964 6.04572H6.82814C3.32926 6.04572 1.57144 7.77004 1.57144 11.2354V31.6762C1.57144 35.1417 3.32926 36.866 6.82814 36.866ZM6.57703 34.1707C5.08707 34.1707 4.26676 33.384 4.26676 31.827V16.0401C4.26676 14.5 5.08707 13.6964 6.57703 13.6964H29.914C31.404 13.6964 32.2412 14.5 32.2412 16.0401V31.827C32.2412 33.384 31.404 34.1707 29.914 34.1707H6.57703Z" fill="url(#paint0_linear_1372_1356)"/>
<path d="M14.9978 19.7064H15.9855C16.5715 19.7064 16.7556 19.539 16.7556 18.9531V17.9654C16.7556 17.3794 16.5715 17.1953 15.9855 17.1953H14.9978C14.4119 17.1953 14.211 17.3794 14.211 17.9654V18.9531C14.211 19.539 14.4119 19.7064 14.9978 19.7064ZM20.5559 19.7064H21.5436C22.1295 19.7064 22.3303 19.539 22.3303 18.9531V17.9654C22.3303 17.3794 22.1295 17.1953 21.5436 17.1953H20.5559C19.9699 17.1953 19.769 17.3794 19.769 17.9654V18.9531C19.769 19.539 19.9699 19.7064 20.5559 19.7064ZM26.1139 19.7064H27.1016C27.6875 19.7064 27.8885 19.539 27.8885 18.9531V17.9654C27.8885 17.3794 27.6875 17.1953 27.1016 17.1953H26.1139C25.5279 17.1953 25.3437 17.3794 25.3437 17.9654V18.9531C25.3437 19.539 25.5279 19.7064 26.1139 19.7064ZM9.43975 25.1808H10.4107C11.0134 25.1808 11.1976 25.0134 11.1976 24.4274V23.4397C11.1976 22.8538 11.0134 22.6864 10.4107 22.6864H9.43975C8.83708 22.6864 8.65292 22.8538 8.65292 23.4397V24.4274C8.65292 25.0134 8.83708 25.1808 9.43975 25.1808ZM14.9978 25.1808H15.9855C16.5715 25.1808 16.7556 25.0134 16.7556 24.4274V23.4397C16.7556 22.8538 16.5715 22.6864 15.9855 22.6864H14.9978C14.4119 22.6864 14.211 22.8538 14.211 23.4397V24.4274C14.211 25.0134 14.4119 25.1808 14.9978 25.1808ZM20.5559 25.1808H21.5436C22.1295 25.1808 22.3303 25.0134 22.3303 24.4274V23.4397C22.3303 22.8538 22.1295 22.6864 21.5436 22.6864H20.5559C19.9699 22.6864 19.769 22.8538 19.769 23.4397V24.4274C19.769 25.0134 19.9699 25.1808 20.5559 25.1808ZM9.43975 30.6718H10.4107C11.0134 30.6718 11.1976 30.4877 11.1976 29.9017V28.914C11.1976 28.3281 11.0134 28.1607 10.4107 28.1607H9.43975C8.83708 28.1607 8.65292 28.3281 8.65292 28.914V29.9017C8.65292 30.4877 8.83708 30.6718 9.43975 30.6718ZM14.9978 30.6718H15.9855C16.5715 30.6718 16.7556 30.4877 16.7556 29.9017V28.914C16.7556 28.3281 16.5715 28.1607 15.9855 28.1607H14.9978C14.4119 28.1607 14.211 28.3281 14.211 28.914V29.9017C14.211 30.4877 14.4119 30.6718 14.9978 30.6718ZM20.5559 30.6718H21.5436C22.1295 30.6718 22.3303 30.4877 22.3303 29.9017V28.914C22.3303 28.3281 22.1295 28.1607 21.5436 28.1607H20.5559C19.9699 28.1607 19.769 28.3281 19.769 28.914V29.9017C19.769 30.4877 19.9699 30.6718 20.5559 30.6718Z" fill="url(#paint1_linear_1372_1356)"/>
<path d="M33.6139 42.3068C39.49 42.3068 44.3951 37.4017 44.3951 31.5088C44.3951 25.5825 39.5401 20.7109 33.6139 20.7109C27.6874 20.7109 22.8159 25.5992 22.8159 31.5088C22.8159 37.4519 27.6707 42.3068 33.6139 42.3068Z" fill="#F2F2F7"/>
<path d="M33.6139 40.0134C38.2176 40.0134 42.1183 36.163 42.1183 31.5088C42.1183 26.8381 38.2679 23.0044 33.6139 23.0044C28.9432 23.0044 25.1094 26.8548 25.1094 31.5088C25.1094 36.1964 28.9432 40.0134 33.6139 40.0134Z" fill="url(#paint2_linear_1372_1356)"/>
<path d="M29.6462 32.8146C29.0603 32.8146 28.5916 32.3459 28.5916 31.7768C28.5916 31.2242 29.077 30.7555 29.6462 30.7555H32.6596V26.5535C32.6596 26.0011 33.1283 25.5491 33.6976 25.5491C34.2667 25.5491 34.7354 26.0011 34.7354 26.5535V31.7768C34.7354 32.3626 34.2834 32.8146 33.6976 32.8146H29.6462Z" fill="#F2F2F7"/>
</g>
<defs>
<linearGradient id="paint0_linear_1372_1356" x1="18.2539" y1="6.04572" x2="18.2539" y2="36.866" gradientUnits="userSpaceOnUse">
<stop stop-color="#007AFF"/>
<stop offset="1" stop-color="#5856D6"/>
</linearGradient>
<linearGradient id="paint1_linear_1372_1356" x1="18.2707" y1="17.1953" x2="18.2707" y2="30.6718" gradientUnits="userSpaceOnUse">
<stop stop-color="#007AFF"/>
<stop offset="1" stop-color="#5856D6"/>
</linearGradient>
<linearGradient id="paint2_linear_1372_1356" x1="33.6139" y1="23.0044" x2="33.6139" y2="40.0134" gradientUnits="userSpaceOnUse">
<stop stop-color="#007AFF"/>
<stop offset="1" stop-color="#5856D6"/>
</linearGradient>
<clipPath id="clip0_1372_1356">
<rect width="42.8237" height="41.7354" fill="white" transform="translate(1.57144 0.571411)"/>
</clipPath>
</defs>
</svg>
