<svg width="40" height="40" viewBox="0 0 40 40" fill="none" xmlns="http://www.w3.org/2000/svg">
<g clip-path="url(#clip0_1376_1300)">
<path d="M1.25 28.2399C1.25 31.0899 2.69027 32.508 5.55708 32.508H28.5053C30.9606 32.508 32.4009 31.0761 32.4009 28.2399V16.9504H1.25V28.2399ZM1.25 15.1468H32.4009V14.1005C32.4009 11.2643 30.9469 9.83249 28.0938 9.83249H14.9257C13.9929 9.83249 13.4305 9.6122 12.7447 9.0202L11.908 8.33181C11.0026 7.56081 10.3031 7.31299 8.94513 7.31299H5.03584C2.63539 7.31299 1.25 8.68976 1.25 11.4571V15.1468Z" fill="url(#paint0_linear_1376_1300)"/>
<path d="M31.1664 22.7467C35.981 22.7467 40 18.7127 40 13.8664C40 9.00642 36.0084 5 31.1664 5C26.3106 5 22.319 9.00642 22.319 13.8664C22.319 18.754 26.2968 22.7467 31.1664 22.7467Z" fill="#F2F2F7"/>
<path d="M31.1663 20.8605C34.9384 20.8605 38.1345 17.6939 38.1345 13.8665C38.1345 10.039 34.9796 6.87244 31.1663 6.87244C27.3394 6.87244 24.1982 10.039 24.1982 13.8665C24.1982 17.7214 27.3394 20.8605 31.1663 20.8605Z" fill="url(#paint1_linear_1376_1300)"/>
<path d="M31.1664 18.2584C30.6451 18.2584 30.3159 17.9142 30.3159 17.4048V14.7201H27.6412C27.1336 14.7201 26.8044 14.3896 26.8044 13.8665C26.8044 13.357 27.1336 13.0266 27.6412 13.0266H30.3159V10.3419C30.3159 9.8325 30.6451 9.50208 31.1664 9.50208C31.6739 9.50208 32.003 9.8325 32.003 10.3419V13.0266H34.6779C35.1854 13.0266 35.5283 13.357 35.5283 13.8665C35.5283 14.3896 35.1854 14.7201 34.6779 14.7201H32.003V17.4048C32.003 17.9142 31.6739 18.2584 31.1664 18.2584Z" fill="#F2F2F7"/>
</g>
<defs>
<linearGradient id="paint0_linear_1376_1300" x1="16.8254" y1="7.31299" x2="16.8254" y2="32.508" gradientUnits="userSpaceOnUse">
<stop stop-color="#007AFF"/>
<stop offset="1" stop-color="#5856D6"/>
</linearGradient>
<linearGradient id="paint1_linear_1376_1300" x1="31.1663" y1="6.87244" x2="31.1663" y2="20.8605" gradientUnits="userSpaceOnUse">
<stop stop-color="#007AFF"/>
<stop offset="1" stop-color="#5856D6"/>
</linearGradient>
<clipPath id="clip0_1376_1300">
<rect width="38.75" height="30" fill="white" transform="translate(1.25 5)"/>
</clipPath>
</defs>
</svg>
