<svg width="39" height="30" viewBox="0 0 39 30" fill="none" xmlns="http://www.w3.org/2000/svg">
<g clip-path="url(#clip0_1376_1301)">
<path d="M0.25 23.2399C0.25 26.0899 1.69027 27.508 4.55708 27.508H27.5053C29.9606 27.508 31.4009 26.0761 31.4009 23.2399V11.9504H0.25V23.2399ZM0.25 10.1468H31.4009V9.10049C31.4009 6.26433 29.9469 4.83249 27.0938 4.83249H13.9257C12.9929 4.83249 12.4305 4.6122 11.7447 4.0202L10.908 3.33181C10.0026 2.56081 9.30309 2.31299 7.94513 2.31299H4.03584C1.63539 2.31299 0.25 3.68976 0.25 6.45708V10.1468Z" fill="url(#paint0_linear_1376_1301)"/>
<path d="M30.1664 17.7467C34.981 17.7467 39 13.7127 39 8.86644C39 4.00642 35.0084 0 30.1664 0C25.3106 0 21.319 4.00642 21.319 8.86644C21.319 13.754 25.2968 17.7467 30.1664 17.7467Z" fill="#F2F2F7"/>
<path d="M30.1663 15.8605C33.9384 15.8605 37.1345 12.6939 37.1345 8.86646C37.1345 5.03902 33.9796 1.87244 30.1663 1.87244C26.3394 1.87244 23.1982 5.03902 23.1982 8.86646C23.1982 12.7214 26.3394 15.8605 30.1663 15.8605Z" fill="url(#paint1_linear_1376_1301)"/>
<path d="M30.1664 13.2584C29.6451 13.2584 29.3159 12.9142 29.3159 12.4048V9.72006H26.6412C26.1336 9.72006 25.8044 9.38963 25.8044 8.86646C25.8044 8.35705 26.1336 8.02662 26.6412 8.02662H29.3159V5.34192C29.3159 4.8325 29.6451 4.50208 30.1664 4.50208C30.6739 4.50208 31.003 4.8325 31.003 5.34192V8.02662H33.6779C34.1854 8.02662 34.5283 8.35705 34.5283 8.86646C34.5283 9.38963 34.1854 9.72006 33.6779 9.72006H31.003V12.4048C31.003 12.9142 30.6739 13.2584 30.1664 13.2584Z" fill="#F2F2F7"/>
</g>
<defs>
<linearGradient id="paint0_linear_1376_1301" x1="15.8254" y1="2.31299" x2="15.8254" y2="27.508" gradientUnits="userSpaceOnUse">
<stop stopColor="#007AFF"/>
<stop offset="1" stopColor="#5856D6"/>
</linearGradient>
<linearGradient id="paint1_linear_1376_1301" x1="30.1663" y1="1.87244" x2="30.1663" y2="15.8605" gradientUnits="userSpaceOnUse">
<stop stopColor="#007AFF"/>
<stop offset="1" stopColor="#5856D6"/>
</linearGradient>
<clipPath id="clip0_1376_1301">
<rect width="38.75" height="30" fill="white" transform="translate(0.25)"/>
</clipPath>
</defs>
</svg>
