<svg width="20" height="21" viewBox="0 0 20 21" fill="none" xmlns="http://www.w3.org/2000/svg">
<g clip-path="url(#clip0_1360_1614)">
<path d="M10 0.981323C7.34844 0.981323 4.80312 2.03554 2.92969 3.91023C1.05433 5.78567 0.000536638 8.32911 0 10.9813C0 13.6324 1.05469 16.1777 2.92969 18.0524C4.80312 19.9271 7.34844 20.9813 10 20.9813C12.6516 20.9813 15.1969 19.9271 17.0703 18.0524C18.9453 16.1777 20 13.6324 20 10.9813C20 8.33023 18.9453 5.78492 17.0703 3.91023C15.1969 2.03554 12.6516 0.981323 10 0.981323Z" fill="url(#paint0_linear_1360_1614)"/>
<path d="M4.5267 10.8757C7.44232 9.60567 9.38607 8.76838 10.3579 8.3638C13.1361 7.20864 13.7126 7.00802 14.0892 7.00122C14.172 6.99989 14.3564 7.02036 14.4767 7.11762C14.5767 7.19966 14.6048 7.31059 14.6189 7.38848C14.6314 7.4663 14.6486 7.64364 14.6345 7.78208C14.4845 9.36333 13.8329 13.2005 13.5017 14.9716C13.3626 15.721 13.0861 15.9722 12.8189 15.9968C12.2376 16.0502 11.797 15.613 11.2345 15.2444C10.3548 14.6674 9.85795 14.3083 9.00326 13.7454C8.01576 13.0947 8.65639 12.7371 9.21889 12.1527C9.36576 11.9997 11.9251 9.67239 11.9736 9.4613C11.9798 9.43489 11.9861 9.33645 11.9267 9.28458C11.8689 9.23255 11.7829 9.25036 11.7204 9.26442C11.6314 9.28442 10.2267 10.2138 7.5017 12.0524C7.10326 12.3265 6.74232 12.46 6.41732 12.453C6.06107 12.4454 5.37357 12.2511 4.86264 12.0852C4.23764 11.8816 3.7392 11.774 3.78295 11.4282C3.80482 11.2482 4.05326 11.064 4.5267 10.8757Z" fill="white"/>
</g>
<defs>
<linearGradient id="paint0_linear_1360_1614" x1="1000" y1="0.981323" x2="1000" y2="2000.98" gradientUnits="userSpaceOnUse">
<stop stopColor="#2AABEE"/>
<stop offset="1" stopColor="#229ED9"/>
</linearGradient>
<clipPath id="clip0_1360_1614">
<rect width="20" height="20" fill="white" transform="translate(0 0.981323)"/>
</clipPath>
</defs>
</svg>
