<svg width="10" height="16" viewBox="0 0 10 16" fill="none" xmlns="http://www.w3.org/2000/svg">
<path d="M4.97107 6.50059L4.97036 6.50109C4.52506 6.81396 4.08657 7.1642 3.76319 7.61973C3.42996 8.08915 3.2344 8.64759 3.2344 9.3477V9.34798V9.34825V9.34853V9.3488V9.34908V9.34935V9.34963V9.34991V9.35018V9.35046V9.35074V9.35101V9.35129V9.35157V9.35185V9.35213V9.3524V9.35268V9.35296V9.35324V9.35352V9.3538V9.35408V9.35436V9.35464V9.35492V9.3552V9.35548V9.35577V9.35605V9.35633V9.35661V9.35689V9.35718V9.35746V9.35774V9.35803V9.35831V9.35859V9.35888V9.35916V9.35945V9.35973V9.36002V9.3603V9.36059V9.36087V9.36116V9.36144V9.36173V9.36202V9.3623V9.36259V9.36288V9.36317V9.36345V9.36374V9.36403V9.36432V9.36461V9.36489V9.36518V9.36547V9.36576V9.36605V9.36634V9.36663V9.36692V9.36721V9.3675V9.36779V9.36808V9.36837V9.36866V9.36896V9.36925V9.36954V9.36983V9.37012V9.37042V9.37071V9.371V9.37129V9.37159V9.37188V9.37217V9.37247V9.37276V9.37306V9.37335V9.37364V9.37394V9.37423V9.37453V9.37482V9.37512V9.37541V9.37571V9.37601V9.3763V9.3766V9.37689V9.37719V9.37749V9.37778V9.37808V9.37838V9.37867V9.37897V9.37927V9.37957V9.37986V9.38016V9.38046V9.38076V9.38106V9.38136V9.38165V9.38195V9.38225V9.38255V9.38285V9.38315V9.38345V9.38375V9.38405V9.38435V9.38465V9.38495V9.38525V9.38555V9.38585V9.38615V9.38645V9.38675V9.38705V9.38736V9.38766V9.38796V9.38826V9.38856V9.38886V9.38917V9.38947V9.38977V9.39007V9.39038V9.39068V9.39098V9.39128V9.39159V9.39189V9.39219V9.3925V9.3928V9.3931V9.39341V9.39371V9.39401V9.39432V9.39462V9.39493V9.39523V9.39554V9.39584V9.39614V9.39645V9.39675V9.39706V9.39736V9.39767V9.39797V9.39828V9.39858V9.39889V9.3992V9.3995V9.39981V9.40011V9.40042V9.40072V9.40103V9.40134V9.40164V9.40195V9.40225V9.40256V9.40287V9.40317V9.40348V9.40379V9.40409V9.4044V9.40471V9.40501V9.40532V9.40563V9.40593V9.40624V9.40655V9.40686V9.40716V9.40747V9.40778V9.40809V9.40839V9.4087V9.40901V9.40932V9.40962V9.40993V9.41024V9.41055V9.41086V9.41116V9.41147V9.41178V9.41209V9.4124V9.4127V9.41301V9.41332V9.41363V9.41394V9.41425V9.41455V9.41486V9.41517V9.41548V9.41579V9.4161V9.4164V9.41671V9.41702V9.41733V9.41764V9.41795V9.41826V9.41857V9.41887V9.41918V9.41949V9.4198V9.42011V9.42042V9.42073V9.42104V9.42135V9.42165V9.42196V9.42227V9.42258V9.42289V9.4232V9.42351V9.42382V9.42413V9.42443V9.42474V9.42505V9.42536V9.42567V9.42598V9.42629V9.4266V9.42691V9.42721V9.42752V9.42783V9.42814V9.42845V9.42876V9.42907V9.42938V9.42969V9.42999V9.4303V9.43061V9.43092V9.43123V9.43154V9.43185V9.43215V9.43246V9.43277V9.43308V9.43339V9.4337V9.43401V9.43431V9.43462V9.43493V9.43524V9.43555V9.43586V9.43616V9.43647V9.43678V9.43709V9.4374V9.4377V9.43801V9.43832V9.43863V9.43894V9.43924V9.43955V9.43986V9.44017V9.44047V9.44078V9.44109V9.4414V9.4417V9.44201V9.44232V9.44262V9.44293V9.44324V9.44354V9.44385V9.44416V9.44447V9.44477V9.44508V9.44538V9.44569V9.446V9.4463V9.44661V9.44692V9.44722V9.44753V9.44783V9.44814V9.44845V9.44875V9.44906V9.44936V9.44967V9.44997V9.45028V9.45058V9.45089V9.45119V9.4515V9.4518V9.45211V9.45241V9.45272V9.45302V9.45332V9.45363V9.45393V9.45424V9.45454V9.45484V9.45515V9.45545V9.45575V9.45606V9.45636V9.45666V9.45697V9.45727V9.45757V9.45788V9.45818V9.45848V9.45878V9.45909V9.45939V9.45969V9.45999V9.46029V9.46059V9.4609V9.4612V9.4615V9.4618V9.4621V9.4624V9.4627V9.463V9.4633V9.4636V9.4639V9.4642V9.4645V9.4648V9.4651V9.4654V9.4657V9.466V9.4663V9.4666V9.4669V9.4672V9.46749V9.46779V9.46809V9.46839V9.46869V9.46898V9.46928V9.46958V9.46988V9.47017V9.47047V9.47077V9.47106V9.47136V9.47166V9.47195V9.47225V9.47254V9.47284V9.47313V9.47343V9.47372V9.47402V9.47431V9.47461V9.4749V9.4752V9.47549V9.47579V9.47608V9.47637V9.47667V9.47696V9.47725V9.47754V9.47784V9.47813V9.47842V9.47871V9.47901V9.4793V9.47959V9.47988V9.48017V9.48046V9.48075V9.48104V9.48133V9.48162V9.48191V9.4822V9.48249V9.48278V9.48307V9.48336V9.48365V9.48394V9.48423V9.48451V9.4848V9.48509V9.48538V9.48566V9.48595V9.48624V9.48652V9.48681V9.4871V9.48738V9.48767V9.48795V9.48824V9.48852V9.48881V9.48909V9.48938V9.48966V9.48995V9.49023V9.49051V9.4908V9.49108V9.49136V9.49164V9.49193V9.49221V9.49249V9.49277V9.49305V9.49333V9.49361V9.4939V9.49418V9.49446V9.49474V9.49502V9.49529V9.49557V9.49585V9.49613V9.49641V9.49669V9.49696V9.49724V9.49752V9.4978V9.49807V9.49835V9.49863V9.4989V9.49918V9.49945V9.49973V9.5C3.2344 9.90717 3.34919 10.2939 3.63902 10.576C3.92658 10.856 4.31262 10.9609 4.707 10.9609C5.11879 10.9609 5.49167 10.8287 5.76672 10.575C6.04271 10.3205 6.1914 9.96888 6.1914 9.5938V9.59353V9.59325V9.59298V9.5927V9.59243V9.59215V9.59187V9.5916V9.59132V9.59104V9.59076V9.59049V9.59021V9.58993V9.58965V9.58937V9.58909V9.58882V9.58854V9.58826V9.58798V9.5877V9.58742V9.58713V9.58685V9.58657V9.58629V9.58601V9.58573V9.58545V9.58516V9.58488V9.5846V9.58432V9.58403V9.58375V9.58347V9.58318V9.5829V9.58261V9.58233V9.58205V9.58176V9.58148V9.58119V9.5809V9.58062V9.58033V9.58005V9.57976V9.57947V9.57919V9.5789V9.57861V9.57833V9.57804V9.57775V9.57747V9.57718V9.57689V9.5766V9.57631V9.57602V9.57574V9.57545V9.57516V9.57487V9.57458V9.57429V9.574V9.57371V9.57342V9.57313V9.57284V9.57255V9.57226V9.57197V9.57168V9.57139V9.5711V9.5708V9.57051V9.57022V9.56993V9.56964V9.56935V9.56905V9.56876V9.56847V9.56818V9.56788V9.56759V9.5673V9.56701V9.56671V9.56642V9.56613V9.56583V9.56554V9.56525V9.56495V9.56466V9.56436V9.56407V9.56378V9.56348V9.56319V9.56289V9.5626V9.5623V9.56201V9.56171V9.56142V9.56112V9.56083V9.56053V9.56024V9.55994V9.55965V9.55935V9.55906V9.55876V9.55846V9.55817V9.55787V9.55758V9.55728V9.55698V9.55669V9.55639V9.55609V9.5558V9.5555V9.5552V9.55491V9.55461V9.55431V9.55402V9.55372V9.55342V9.55313V9.55283V9.55253V9.55224V9.55194V9.55164V9.55134V9.55105V9.55075V9.55045V9.55016V9.54986V9.54956V9.54926V9.54897V9.54867V9.54837V9.54807V9.54778V9.54748V9.54718V9.54688V9.54659V9.54629V9.54599V9.54569V9.54539V9.5451V9.5448V9.5445V9.5442V9.54391V9.54361V9.54331V9.54301V9.54272V9.54242V9.54212V9.54182V9.54153V9.54123V9.54093V9.54063V9.54034V9.54004V9.53974V9.53944V9.53915V9.53885V9.53855V9.53825V9.53796V9.53766V9.53736V9.53706V9.53677V9.53647V9.53617V9.53588V9.53558V9.53528V9.53499V9.53469V9.53439V9.53409V9.5338V9.5335V9.53321V9.53291V9.53261V9.53232V9.53202V9.53172V9.53143V9.53113V9.53083V9.53054V9.53024V9.52995V9.52965V9.52936V9.52906V9.52876V9.52847V9.52817V9.52788V9.52758V9.52729V9.52699V9.5267V9.5264V9.52611V9.52581V9.52552V9.52522V9.52493V9.52464V9.52434V9.52405V9.52375V9.52346V9.52317V9.52287V9.52258V9.52229V9.52199V9.5217V9.52141V9.52111V9.52082V9.52053V9.52024V9.51994V9.51965V9.51936V9.51907V9.51877V9.51848V9.51819V9.5179V9.51761V9.51732V9.51703V9.51674V9.51644V9.51615V9.51586V9.51557V9.51528V9.51499V9.5147V9.51441V9.51412V9.51383V9.51355V9.51326V9.51297V9.51268V9.51239V9.5121V9.51181V9.51153V9.51124V9.51095V9.51066V9.51038V9.51009V9.5098V9.50951V9.50923V9.50894V9.50866V9.50837V9.50808V9.5078V9.50751V9.50723V9.50694V9.50666V9.50637V9.50609V9.5058V9.50552V9.50524V9.50495V9.50467V9.50439V9.5041V9.50382V9.50354V9.50326V9.50297V9.50269V9.50241V9.50213V9.50185V9.50157V9.50129V9.50101V9.50072V9.50044V9.50016V9.49989V9.49961V9.49933V9.49905V9.49877V9.49849V9.49821V9.49794V9.49766V9.49738V9.4971V9.49683V9.49655V9.49627V9.496V9.49572V9.49545V9.49517V9.4949V9.49462V9.49435V9.49407V9.4938V9.49352V9.49325V9.49298V9.49271V9.49243V9.49216V9.49189V9.49162V9.49134V9.49107V9.4908V9.49053V9.49026V9.48999V9.48972V9.48945V9.48918V9.48892V9.48865V9.48838V9.48811V9.48784V9.48758V9.48731V9.48704V9.48678V9.48651V9.48624V9.48598V9.48571V9.48545V9.48518V9.48492V9.48466V9.48439V9.48413V9.48387V9.48361V9.48334V9.48308V9.48282V9.48256V9.4823V9.48204V9.48178V9.48152V9.48126V9.481V9.48074V9.48048V9.48022V9.47997V9.47971V9.47945V9.4792V9.47894V9.47868V9.47843V9.47817V9.47792V9.47766V9.47741V9.47716V9.4769V9.47665V9.4764V9.47615V9.47589V9.47564V9.47539V9.47514V9.47489V9.47464V9.47439V9.47414V9.47389V9.47365V9.4734V9.47315V9.4729V9.47266V9.47241V9.47216V9.47192V9.47167V9.47143V9.47118V9.47094V9.4707V9.47045V9.47021V9.46997V9.46973V9.46949V9.46924V9.469V9.46876V9.46852V9.46829V9.46805V9.46781V9.46757V9.46733V9.4671V9.46686V9.46662V9.46639V9.46615V9.46592V9.46568V9.46545V9.46521V9.46498V9.46475V9.46452V9.46428V9.46405V9.46382V9.46359V9.46336V9.46313V9.4629V9.46268V9.46245V9.46222V9.46199V9.46177V9.46154V9.46131V9.46109V9.46086V9.46064V9.46042V9.46019V9.45997V9.45975V9.45953V9.4593V9.45908V9.45886V9.45864V9.45842V9.4582V9.45799V9.45777V9.45755V9.45733V9.45712V9.4569V9.45669V9.45647V9.45626V9.45604V9.45583V9.45562V9.4554V9.45519V9.45498V9.45477V9.45456V9.45435V9.45414V9.45393V9.45373V9.45352V9.45331V9.4531C6.1914 9.22409 6.25127 9.05304 6.38621 8.87802C6.5357 8.68411 6.78569 8.47507 7.19518 8.20782L7.19518 8.20782L7.19734 8.2064C7.78535 7.81829 8.35029 7.41151 8.76207 6.88834C9.18938 6.34543 9.4375 5.69727 9.4375 4.85938C9.4375 3.68299 8.9057 2.76655 8.07916 2.15951C7.26742 1.56334 6.19209 1.27734 5.082 1.27734C2.86958 1.27734 1.24575 2.31642 0.830173 3.71793C0.765381 3.92592 0.703125 4.17898 0.703125 4.46094C0.703125 5.32989 1.41758 5.79297 2.03516 5.79297C2.6493 5.79297 3.04915 5.47701 3.32952 5.12286L3.33662 5.1139L3.3433 5.10462L3.5542 4.81165L3.56462 4.79717L3.57399 4.78198C3.93061 4.20369 4.40179 3.91797 5.0117 3.91797C5.4642 3.91797 5.79176 4.04644 5.99766 4.22265C6.19684 4.39311 6.3164 4.6358 6.3164 4.95312C6.3164 5.23475 6.23942 5.42406 6.05644 5.63304C5.84594 5.87345 5.51009 6.12328 4.97107 6.50059ZM2.87111 12.8047C2.87111 13.7985 3.73134 14.5586 4.68361 14.5586C5.63274 14.5586 6.49611 13.8131 6.49611 12.8047C6.49611 11.805 5.65362 11.0391 4.68361 11.0391C3.71052 11.0391 2.87111 11.8196 2.87111 12.8047Z" fill="url(#paint0_linear_1670_9924)" stroke="white"/>
<defs>
<linearGradient id="paint0_linear_1670_9924" x1="5.07031" y1="1.77734" x2="5.07031" y2="14.0586" gradientUnits="userSpaceOnUse">
<stop stop-color="#007AFF"/>
<stop offset="1" stop-color="#5856D6"/>
</linearGradient>
</defs>
</svg>
