<svg width="31" height="39" viewBox="0 0 31 39" fill="none" xmlns="http://www.w3.org/2000/svg">
<path d="M0.0742177 17.7502L0.0742182 27.554C0.0742182 28.7302 0.0742182 29.3183 0.320742 29.653C0.535683 29.9448 0.865442 30.1304 1.22642 30.1628C1.64044 30.1999 2.14323 29.8949 3.1488 29.2848L12.7206 23.4772C13.2296 23.1683 13.4841 23.0139 13.7477 22.9792C13.9802 22.9485 14.2166 22.9831 14.4305 23.0789C14.6732 23.1877 14.8729 23.4085 15.2722 23.8501L27.0731 36.8991C28.1681 38.11 28.7157 38.7154 29.1902 38.7696C29.6015 38.8166 30.0098 38.6593 30.2834 38.3486C30.599 37.9901 30.599 37.1738 30.599 35.5412L30.599 27.9514C30.599 27.6719 30.599 27.5322 30.5701 27.3992C30.5444 27.2813 30.5021 27.1677 30.4442 27.0618C30.379 26.9424 30.2875 26.8368 30.1045 26.6256L30.1044 26.6256L15.2602 9.4976C14.8655 9.04223 14.6682 8.81454 14.4252 8.70055C14.2109 8.60004 13.9727 8.56166 13.7377 8.58975C13.4711 8.62161 13.2123 8.77577 12.6945 9.08409L1.06285 16.0108L1.06282 16.0108C0.702397 16.2255 0.522183 16.3328 0.391246 16.481C0.275377 16.6122 0.187976 16.7659 0.13457 16.9326C0.0742177 17.1209 0.0742177 17.3307 0.0742177 17.7502Z" fill="white"/>
<path d="M18.0931 9.41108L24.2726 16.5996L27.0615 19.737C28.1582 20.9709 28.7066 21.5878 29.1827 21.645C29.5952 21.6946 30.0058 21.5385 30.2812 21.2274C30.599 20.8683 30.599 20.0429 30.599 18.392L30.599 13.5945L30.599 2.76378C30.599 1.59737 30.599 1.01416 30.3544 0.680258C30.141 0.38909 29.8134 0.20291 29.4541 0.168574C29.042 0.129199 28.5409 0.4276 27.5388 1.0244L18.5924 6.35199C17.881 6.77564 17.5253 6.98747 17.3598 7.28298C17.2146 7.54228 17.1652 7.84442 17.2205 8.13644C17.2834 8.46925 17.5533 8.78319 18.0931 9.41108Z" fill="white"/>
</svg>
